
<svg width="1024px" height="1024px" viewBox="0 0 1024 1024" version="1.1" xmlns="http://www.w3.org/2000/svg" xmlns:xlink="http://www.w3.org/1999/xlink">
    <defs>
        <path d="M924,356.627066 C924,346.845101 924,337.062137 923.943901,327.279173 C923.894902,319.038203 923.799902,310.799233 923.575904,302.562263 C923.091908,284.609328 922.032915,266.502394 918.839939,248.749458 C915.601963,230.740524 910.314002,213.979585 901.981064,197.616645 C893.789124,181.533703 883.088204,166.816757 870.320298,154.057803 C857.555393,141.29885 842.834502,130.604889 826.745621,122.417918 C810.365742,114.082949 793.586866,108.796968 775.558,105.55998 C757.803131,102.371991 739.691265,101.314995 721.738398,100.829997 C713.495459,100.606998 705.25252,100.512998 697.007581,100.461998 C687.219653,100.401999 677.431726,100.406999 667.643798,100.406999 L553.99664,100 L468.997269,100 L357.361095,100.406999 C347.554168,100.406999 337.74724,100.401999 327.940313,100.461998 C319.678374,100.512998 311.420435,100.606998 303.161496,100.829997 C285.166629,101.314995 267.013764,102.372991 249.216896,105.56498 C231.164029,108.800968 214.360154,114.084949 197.958275,122.413918 C181.835394,130.601889 167.082503,141.29685 154.290598,154.057803 C141.500693,166.815757 130.779772,181.529703 122.572833,197.609645 C114.216895,213.980585 108.918934,230.751524 105.672958,248.770458 C102.476982,266.516394 101.41799,284.617328 100.930993,302.562263 C100.708995,310.800233 100.612995,319.039203 100.562996,327.279173 C100.502996,337.063137 100,349.216093 100,358.999057 L100,469.088656 L100,554.998343 L100.507996,667.426934 C100.507996,677.222898 100.503996,687.018863 100.562996,696.814827 C100.612995,705.066797 100.708995,713.316767 100.931993,721.565737 C101.41799,739.541672 102.478982,757.674606 105.677958,775.451541 C108.922934,793.484475 114.219895,810.269414 122.568833,826.653354 C130.776772,842.759296 141.499693,857.495242 154.290598,870.272196 C167.081503,883.049149 181.830394,893.75711 197.950275,901.95608 C214.362153,910.30205 231.174029,915.595031 249.237895,918.836019 C267.026764,922.029007 285.173629,923.088003 303.161496,923.573002 C311.420435,923.796001 319.679374,923.891 327.941313,923.941 C337.74824,924 347.554168,924 357.361095,924 L470.006261,924 L555.216631,924 L667.643798,924 C677.431726,924 687.219653,924 697.007581,923.941 C705.25252,923.891 713.495459,923.796001 721.738398,923.573002 C739.698265,923.087003 757.816131,922.027007 775.578999,918.832019 C793.596866,915.591031 810.367742,910.30005 826.738621,901.95908 C842.830502,893.76111 857.554393,883.051149 870.320298,870.272196 C883.086204,857.497242 893.786124,842.763296 901.978064,826.660354 C910.316002,810.268414 915.603963,793.475475 918.843939,775.430541 C922.033915,757.660606 923.091908,739.534672 923.576904,721.565737 C923.799902,713.315767 923.894902,705.065797 923.943901,696.814827 C924,687.018863 924,677.222898 924,667.426934 C924,667.426934 924,556.983336 924,554.998343 L924,468.998657 C924,467.532662 924,356.627066 924,356.627066" id="path-hjqxol4se8-1"></path>
        <filter x="-2.4%" y="-1.2%" width="104.9%" height="104.9%" filterUnits="objectBoundingBox" id="filter-hjqxol4se8-3">
            <feOffset dx="0" dy="10" in="SourceAlpha" result="shadowOffsetOuter1"></feOffset>
            <feGaussianBlur stdDeviation="5" in="shadowOffsetOuter1" result="shadowBlurOuter1"></feGaussianBlur>
            <feColorMatrix values="0 0 0 0 0   0 0 0 0 0   0 0 0 0 0  0 0 0 0.3 0" type="matrix" in="shadowBlurOuter1"></feColorMatrix>
        </filter>
    </defs>
    <g id="wen" stroke="none" stroke-width="1" fill="none" fill-rule="evenodd">
        <g id="编组-2">
            <mask id="mask-hjqxol4se8-2" fill="white">
                <use xlink:href="#path-hjqxol4se8-1"></use>
            </mask>
            <g id="Mask">
                <use fill="black" fill-opacity="1" filter="url(#filter-hjqxol4se8-3)" xlink:href="#path-hjqxol4se8-1"></use>
                <use fill="#E8E8E8" fill-rule="evenodd" xlink:href="#path-hjqxol4se8-1"></use>
            </g>
            <rect id="矩形" fill="#FFFFFF" mask="url(#mask-hjqxol4se8-2)" x="124" y="124" width="776" height="776" rx="165"></rect>
            <text id="文" mask="url(#mask-hjqxol4se8-2)" font-family="PingFangSC-Regular, PingFang SC" font-size="600" font-weight="normal" fill="#FF0202">
                <tspan x="212" y="736">文</tspan>
            </text>
        </g>
    </g>
</svg>